<svg id="svg" version="1.1" xmlns="http://www.w3.org/2000/svg" xmlns:xlink="http://www.w3.org/1999/xlink" width="400" height="400" viewBox="0, 0, 400,400"><g id="svgg"><path id="path0" d="M0.000 200.000 L 0.000 400.000 200.000 400.000 L 400.000 400.000 400.000 200.000 L 400.000 0.000 200.000 0.000 L 0.000 0.000 0.000 200.000 M201.701 132.300 C 202.045 132.685,202.455 134.044,202.612 135.320 C 203.139 139.611,206.332 140.200,210.314 136.741 C 211.635 135.594,215.106 135.129,216.981 135.848 C 218.304 136.356,220.000 139.441,220.000 141.339 C 220.000 143.510,220.426 143.720,222.743 142.695 C 228.011 140.365,232.914 147.614,229.001 151.947 C 227.014 154.145,224.964 154.782,222.642 153.921 C 220.981 153.306,220.893 153.318,217.599 154.647 L 214.246 156.000 206.500 156.000 C 197.612 156.000,195.825 156.317,193.977 158.224 C 191.533 160.745,191.993 165.331,194.877 167.197 C 195.600 167.664,197.799 167.840,205.000 168.008 L 214.200 168.221 217.547 169.788 L 220.894 171.354 222.830 170.667 C 228.486 168.658,232.994 175.911,228.735 180.170 C 226.483 182.422,224.711 182.835,222.338 181.661 C 220.291 180.648,220.000 180.801,220.000 182.888 C 220.000 188.251,213.767 191.009,209.938 187.341 C 209.024 186.465,208.330 186.217,206.399 186.077 C 203.399 185.860,202.974 186.202,202.678 189.066 C 202.370 192.055,201.814 192.541,198.499 192.718 C 194.483 192.933,192.807 192.240,192.086 190.067 C 191.165 187.289,187.847 185.882,185.824 187.413 C 183.982 188.806,182.842 188.257,178.474 183.874 C 174.043 179.429,173.835 178.983,174.994 176.412 C 175.685 174.882,175.701 174.585,175.176 173.079 C 174.614 171.466,174.202 171.120,171.400 169.909 C 169.722 169.184,169.248 167.459,169.228 162.000 C 169.209 156.582,169.525 155.726,171.980 154.547 C 175.242 152.980,176.415 150.271,174.786 148.067 C 173.449 146.258,173.968 145.133,178.072 140.947 C 182.354 136.581,183.270 136.084,185.397 136.973 C 188.668 138.340,191.075 137.349,192.136 134.200 C 192.844 132.096,193.905 131.613,197.838 131.606 C 200.422 131.601,201.202 131.741,201.701 132.300 M202.400 145.600 C 201.450 146.799,200.846 147.200,199.987 147.200 C 191.051 147.200,182.603 158.210,185.753 165.750 C 186.109 166.601,186.400 167.558,186.400 167.877 C 186.400 168.680,188.425 171.545,190.235 173.303 C 191.919 174.938,196.718 177.009,199.596 177.342 C 200.852 177.487,201.597 177.828,202.075 178.475 C 203.813 180.828,203.978 180.914,206.267 180.678 C 207.917 180.508,208.764 180.164,209.824 179.233 C 212.010 177.313,216.220 176.989,218.004 178.604 C 219.163 179.653,219.121 177.974,217.946 176.324 C 216.184 173.850,214.471 173.473,203.800 173.212 C 193.428 172.958,193.255 172.922,190.557 170.511 C 185.493 165.986,186.175 157.070,191.886 153.141 C 194.485 151.353,197.790 150.800,205.885 150.800 C 213.481 150.800,216.048 150.237,217.900 148.163 C 219.186 146.723,219.098 145.901,217.700 146.292 C 214.815 147.099,211.410 146.669,209.852 145.300 C 207.497 143.231,204.170 143.365,202.400 145.600 M226.828 157.014 C 230.923 159.089,231.731 163.262,228.615 166.248 C 225.692 169.048,223.604 169.047,220.500 166.243 L 218.957 164.849 208.043 164.724 L 197.128 164.600 196.364 163.656 C 195.355 162.408,195.400 161.763,196.582 160.582 L 197.564 159.600 208.127 159.600 L 218.690 159.600 220.245 158.349 C 221.682 157.194,223.768 156.053,224.513 156.016 C 224.686 156.007,225.727 156.456,226.828 157.014 M152.139 204.799 C 153.463 205.601,154.649 206.705,155.156 207.608 L 155.992 209.094 155.082 210.444 C 153.957 212.113,153.094 212.305,151.241 211.298 C 146.417 208.678,140.571 209.369,140.876 212.525 C 141.026 214.071,142.094 214.670,147.521 216.253 C 150.522 217.129,151.718 217.721,153.704 219.315 L 156.166 221.290 156.658 220.145 C 156.929 219.515,157.261 218.482,157.396 217.849 C 157.775 216.068,161.798 212.087,163.762 211.549 C 167.254 210.592,173.150 211.501,174.172 213.155 C 174.627 213.891,175.742 213.647,176.742 212.593 C 177.260 212.047,177.890 211.587,178.142 211.571 C 178.637 211.539,185.705 211.233,186.970 211.188 C 188.355 211.139,190.004 212.076,190.248 213.051 C 190.569 214.326,191.519 214.246,193.279 212.795 C 195.161 211.244,198.072 210.652,200.868 211.252 C 201.989 211.492,203.761 211.576,204.807 211.437 C 209.467 210.819,210.146 212.147,210.312 222.200 C 210.479 232.292,209.381 234.661,205.043 233.569 C 203.415 233.159,202.837 233.193,201.030 233.808 C 194.290 236.099,188.101 229.714,188.461 220.840 C 188.619 216.934,188.200 216.498,185.511 217.774 C 183.297 218.825,183.048 219.596,182.813 226.136 C 182.527 234.110,180.800 236.022,177.132 232.427 C 175.706 231.029,174.400 230.640,174.400 231.613 C 174.400 231.794,173.365 232.449,172.100 233.069 C 167.350 235.398,162.622 234.152,158.805 229.567 L 156.946 227.334 154.421 229.871 C 148.949 235.370,140.287 235.859,135.098 230.963 C 132.038 228.076,135.617 223.319,138.729 226.136 C 139.487 226.821,142.809 227.602,144.955 227.598 C 150.662 227.588,150.994 223.520,145.377 222.422 C 132.817 219.965,129.676 211.507,138.800 204.715 C 141.586 202.640,148.651 202.685,152.139 204.799 M250.515 204.306 C 251.223 205.089,251.975 207.917,251.990 209.857 C 252.009 212.330,254.534 212.075,255.218 209.531 C 256.404 205.129,261.977 204.616,262.006 208.906 C 262.016 210.281,262.500 210.764,264.426 211.321 C 267.947 212.338,268.087 215.489,264.684 217.115 C 260.865 218.939,260.808 227.600,264.614 227.600 C 266.889 227.600,267.835 230.836,266.103 232.690 C 263.725 235.235,259.590 234.357,256.646 230.681 C 255.452 229.190,255.425 229.058,255.212 223.565 C 254.983 217.660,254.775 217.071,253.000 217.298 C 252.244 217.394,252.189 217.777,252.000 224.272 C 251.820 230.450,251.715 231.257,250.959 232.272 C 249.323 234.468,246.512 234.333,245.306 232.000 C 244.373 230.194,244.780 205.525,245.762 204.441 C 246.748 203.353,249.580 203.272,250.515 204.306 M226.080 211.391 C 228.438 211.770,232.121 215.637,232.999 218.657 C 235.445 227.068,228.671 236.036,221.408 234.002 C 219.065 233.346,218.800 233.615,218.800 236.650 C 218.800 241.437,216.205 243.514,213.322 241.035 C 211.946 239.851,211.702 237.226,211.640 222.933 C 211.589 211.205,211.638 211.100,216.960 211.473 C 218.302 211.567,220.210 211.478,221.200 211.276 C 222.190 211.073,223.360 210.963,223.800 211.031 C 224.240 211.098,225.266 211.261,226.080 211.391 M166.123 217.604 C 163.466 218.674,162.771 224.157,164.990 226.551 C 166.148 227.801,167.511 227.891,170.892 226.942 C 172.826 226.400,173.402 226.373,174.180 226.789 C 175.737 227.623,176.000 227.048,176.000 222.809 C 176.000 217.656,175.936 217.500,174.136 218.252 C 172.855 218.788,172.526 218.767,170.365 218.019 C 167.764 217.119,167.412 217.085,166.123 217.604 M197.462 217.653 C 195.754 218.646,194.666 223.015,195.650 224.926 C 198.255 229.985,203.863 227.292,202.980 221.406 C 202.491 218.144,199.784 216.303,197.462 217.653 M220.386 218.300 C 218.084 220.364,218.363 225.208,220.887 226.976 C 224.210 229.303,227.581 225.291,226.224 220.623 C 225.207 217.126,222.775 216.158,220.386 218.300 M119.626 246.014 C 120.702 246.590,120.592 247.393,119.311 248.327 C 118.282 249.076,118.254 249.179,118.802 250.203 C 119.512 251.531,118.198 252.925,116.431 252.720 C 115.077 252.562,114.597 247.030,115.857 246.109 C 116.698 245.494,118.567 245.447,119.626 246.014 M130.826 246.014 C 132.288 246.797,130.172 249.600,128.120 249.600 C 127.118 249.600,124.400 247.704,124.400 247.005 C 124.400 245.729,128.975 245.023,130.826 246.014 M167.376 246.380 C 167.844 246.768,168.000 247.679,168.000 250.016 C 168.000 254.496,167.439 255.406,165.834 253.531 L 165.090 252.663 164.312 253.731 C 163.392 254.993,162.587 255.097,162.014 254.026 C 161.416 252.908,161.483 246.681,162.100 246.046 C 162.725 245.403,166.485 245.641,167.376 246.380 M177.424 246.177 C 178.448 246.937,177.807 248.053,176.058 248.555 C 174.477 249.008,174.457 249.522,176.000 250.060 C 177.559 250.603,177.523 251.314,175.900 252.028 C 175.185 252.343,174.600 252.859,174.600 253.175 C 174.600 253.491,175.185 253.901,175.900 254.086 C 177.771 254.571,177.614 255.600,175.670 255.600 C 172.842 255.600,171.109 251.605,172.145 247.475 C 172.568 245.791,175.826 244.990,177.424 246.177 M195.781 246.166 C 198.698 247.385,199.108 252.891,196.408 254.595 C 192.429 257.107,190.000 255.295,190.000 249.817 C 190.000 245.896,192.044 244.605,195.781 246.166 M207.389 246.142 C 208.381 246.868,207.932 247.926,206.405 248.458 C 204.938 248.970,204.874 249.469,206.200 250.073 C 207.517 250.673,207.459 251.250,205.997 252.081 C 204.479 252.945,204.480 253.530,206.000 254.060 C 208.839 255.050,206.736 256.118,203.369 255.397 C 201.498 254.997,200.750 248.050,202.400 246.400 C 203.348 245.452,206.240 245.302,207.389 246.142 M228.026 246.014 C 229.103 246.590,228.992 247.394,227.705 248.331 C 226.657 249.094,226.640 249.161,227.305 249.895 C 228.195 250.879,228.180 251.313,227.227 252.176 C 226.343 252.975,226.521 253.858,227.637 254.212 C 228.824 254.588,228.536 255.473,227.135 255.753 C 225.360 256.108,224.017 255.157,223.940 253.491 C 223.579 245.663,224.437 244.093,228.026 246.014 M261.100 247.019 C 262.413 248.515,262.269 248.917,259.384 251.831 C 255.889 255.361,254.800 254.825,254.800 249.574 C 254.800 245.542,258.490 244.045,261.100 247.019 M268.237 246.171 C 268.685 246.485,269.383 247.475,269.787 248.371 C 270.827 250.677,272.000 250.400,272.000 247.847 C 272.000 246.715,272.716 246.000,273.851 246.000 C 275.372 246.000,276.001 247.035,275.995 249.529 C 275.985 253.527,275.329 254.490,273.781 252.779 C 273.039 251.959,273.038 251.960,272.310 253.379 C 271.522 254.916,271.350 254.989,269.875 254.428 C 269.170 254.160,268.664 254.220,268.062 254.642 C 266.437 255.779,265.600 254.228,265.600 250.080 C 265.600 245.753,266.255 244.783,268.237 246.171 M284.574 245.990 C 286.018 246.539,285.849 247.453,284.140 248.330 L 282.679 249.079 283.540 249.940 C 284.620 251.020,284.615 251.116,283.418 252.057 C 282.341 252.904,282.435 253.830,283.637 254.212 C 284.824 254.588,284.536 255.473,283.135 255.753 C 281.360 256.108,280.017 255.157,279.940 253.491 C 279.570 245.478,280.265 244.352,284.574 245.990 M292.525 246.412 C 293.092 246.859,293.783 247.849,294.059 248.612 C 294.662 250.279,295.486 250.412,295.848 248.900 C 296.623 245.654,298.000 246.588,298.000 250.360 C 298.000 254.553,295.974 256.259,294.032 253.700 L 293.196 252.600 292.283 253.700 C 290.449 255.909,289.600 254.708,289.600 249.906 C 289.600 245.579,290.341 244.694,292.525 246.412 M307.723 246.447 C 308.026 246.930,307.910 247.403,307.265 248.309 C 306.722 249.071,306.400 250.124,306.400 251.136 C 306.400 253.204,305.790 254.800,305.000 254.800 C 304.191 254.800,303.600 253.191,303.600 250.986 C 303.600 249.492,303.417 249.089,302.400 248.337 C 300.151 246.674,301.243 245.550,304.958 245.703 C 306.619 245.771,307.437 245.992,307.723 246.447 M97.582 246.380 C 98.515 246.970,97.354 248.796,96.032 248.816 C 95.031 248.831,95.038 248.848,96.269 249.383 C 98.478 250.344,99.060 252.653,97.571 254.546 C 95.625 257.020,91.950 255.048,92.958 252.071 C 93.175 251.429,93.076 250.926,92.636 250.440 C 90.290 247.847,94.473 244.414,97.582 246.380 M109.630 246.636 C 111.090 248.395,110.477 253.721,108.689 254.811 C 103.954 257.698,100.075 249.631,104.600 246.306 C 105.386 245.728,109.078 245.971,109.630 246.636 M141.771 246.629 C 142.117 246.974,142.400 247.784,142.400 248.429 C 142.400 250.123,143.386 249.897,143.829 248.100 C 144.331 246.070,145.738 245.950,145.927 247.921 C 146.081 249.527,144.157 254.765,143.291 255.097 C 142.705 255.322,141.494 254.224,141.083 253.095 C 140.940 252.703,140.746 252.705,140.151 253.103 C 137.363 254.969,136.000 254.407,136.000 251.392 C 136.000 250.288,135.711 249.341,135.162 248.642 C 133.947 247.098,134.760 245.506,136.000 247.000 C 136.673 247.810,137.564 247.751,139.000 246.800 C 140.452 245.839,140.951 245.808,141.771 246.629 M155.260 246.745 C 156.063 247.534,157.874 253.061,157.539 253.700 C 157.129 254.481,156.188 254.627,155.783 253.972 C 155.182 253.000,153.811 252.879,152.490 253.682 C 150.135 255.113,149.108 253.269,150.755 250.567 C 151.169 249.888,151.632 248.764,151.785 248.069 C 152.184 246.253,154.039 245.546,155.260 246.745 M214.351 247.632 C 214.913 249.242,216.460 249.227,217.663 247.600 C 219.295 245.392,220.531 246.582,219.245 249.123 C 218.834 249.935,218.366 251.230,218.204 252.000 C 217.393 255.874,214.360 255.860,213.760 251.980 C 213.608 251.001,213.151 249.722,212.742 249.138 C 211.892 247.923,211.806 247.154,212.449 246.511 C 213.111 245.849,213.890 246.308,214.351 247.632 M235.986 246.774 C 236.214 247.199,236.400 248.785,236.400 250.297 C 236.400 252.096,236.603 253.316,236.987 253.824 C 238.053 255.232,236.860 256.458,235.086 255.778 C 233.073 255.005,232.994 246.000,235.000 246.000 C 235.315 246.000,235.758 246.348,235.986 246.774 M249.400 246.306 C 251.951 248.180,252.168 251.011,249.963 253.644 C 247.507 256.578,245.339 256.106,243.217 252.178 L 242.340 250.555 243.289 248.771 C 243.810 247.790,244.374 246.765,244.542 246.493 C 244.873 245.959,248.725 245.810,249.400 246.306 M104.480 248.880 C 103.293 250.067,105.017 253.600,106.784 253.600 C 107.517 253.600,109.062 250.958,108.872 250.028 C 108.575 248.565,105.578 247.782,104.480 248.880 M245.703 248.900 C 244.627 250.261,245.647 253.600,247.138 253.600 C 249.090 253.600,250.490 250.040,248.974 248.931 C 248.057 248.261,246.222 248.243,245.703 248.900 M193.166 249.889 C 192.881 250.640,192.881 251.260,193.168 251.889 C 194.001 253.718,195.600 252.687,195.600 250.320 C 195.600 248.356,193.866 248.048,193.166 249.889 " stroke="none" fill="#d3ebf3" fill-rule="evenodd"></path><path id="path1" d="M195.200 134.800 C 194.760 135.240,194.400 135.836,194.400 136.125 C 194.400 138.354,186.974 141.455,185.600 139.800 C 184.368 138.316,176.331 144.389,176.932 146.350 C 177.042 146.708,177.363 147.576,177.645 148.279 C 178.750 151.028,176.264 156.140,173.574 156.652 C 171.284 157.087,171.200 157.284,171.200 162.200 C 171.200 167.068,171.209 167.089,173.600 167.998 C 175.219 168.613,176.800 169.916,176.800 170.637 C 176.800 170.910,177.143 171.933,177.561 172.910 C 178.312 174.661,178.312 174.711,177.541 176.432 C 176.560 178.623,176.770 179.068,180.474 182.644 C 182.996 185.078,183.317 185.268,184.507 185.025 C 187.762 184.362,188.460 184.356,190.310 184.970 C 192.597 185.730,194.110 187.194,194.783 189.300 L 195.262 190.800 197.823 190.800 C 200.686 190.800,200.517 191.003,200.977 187.026 C 201.102 185.940,201.456 184.669,201.762 184.201 C 202.239 183.474,202.239 183.209,201.761 182.375 C 201.453 181.839,201.035 180.930,200.832 180.356 C 200.493 179.399,200.235 179.295,197.731 179.115 C 186.723 178.319,179.594 165.396,184.444 155.031 C 186.862 149.865,193.164 145.200,197.725 145.200 C 200.407 145.200,203.232 141.803,201.767 140.339 C 201.463 140.034,201.058 138.646,200.868 137.254 C 200.676 135.853,200.271 134.564,199.961 134.367 C 198.892 133.691,196.051 133.949,195.200 134.800 M210.968 139.410 L 209.105 141.221 210.947 143.010 C 213.634 145.622,217.090 145.023,217.246 141.918 C 217.467 137.514,214.244 136.226,210.968 139.410 M222.251 145.788 C 221.665 146.331,221.075 147.325,220.941 147.996 C 220.807 148.667,220.540 149.314,220.348 149.432 C 218.452 150.604,223.945 152.156,226.194 151.083 C 227.726 150.353,228.185 149.309,227.822 147.377 C 227.339 144.801,224.263 143.924,222.251 145.788 M221.450 160.467 C 218.750 162.468,218.757 162.243,221.322 164.125 C 224.853 166.718,228.357 165.478,227.865 161.810 C 227.414 158.449,224.889 157.920,221.450 160.467 M221.870 173.328 C 220.200 173.795,220.067 175.021,221.404 177.608 C 223.176 181.035,228.379 179.643,227.874 175.878 C 227.494 173.045,225.665 172.268,221.870 173.328 M212.389 180.281 C 211.845 180.656,210.884 181.508,210.253 182.174 L 209.106 183.385 210.992 185.093 C 213.209 187.101,214.938 187.364,216.295 185.900 C 219.086 182.888,215.692 178.006,212.389 180.281 M140.579 205.820 C 132.221 210.131,133.967 217.259,144.105 220.211 C 149.944 221.911,149.930 221.905,150.615 223.229 C 153.139 228.109,144.876 231.304,138.345 227.972 C 135.856 226.702,134.602 228.123,136.576 229.977 C 140.798 233.944,150.616 232.842,153.648 228.061 C 156.713 223.226,154.189 220.096,144.883 217.193 C 139.681 215.571,138.474 214.465,138.977 211.782 C 139.698 207.937,145.486 206.510,150.356 208.977 C 152.727 210.179,153.031 210.216,153.366 209.344 C 154.656 205.982,145.275 203.398,140.579 205.820 M247.023 206.089 C 245.878 207.723,246.112 230.553,247.281 231.372 C 248.033 231.898,248.283 231.909,248.981 231.446 C 250.097 230.705,250.474 207.782,249.397 206.139 C 248.625 204.961,247.825 204.944,247.023 206.089 M257.646 208.253 C 257.154 208.597,256.800 209.280,256.800 209.884 C 256.800 210.583,256.277 211.406,255.200 212.400 C 253.243 214.206,253.240 214.298,255.071 215.835 L 256.542 217.070 256.771 222.699 C 257.038 229.274,257.798 230.860,261.209 231.961 C 264.525 233.031,266.667 230.457,263.400 229.327 C 260.435 228.303,260.200 227.799,260.203 222.488 C 260.206 216.945,260.505 216.184,262.861 215.719 C 265.446 215.207,265.999 212.800,263.531 212.800 C 261.834 212.800,260.517 211.686,260.057 209.861 C 259.551 207.850,258.870 207.396,257.646 208.253 M163.560 213.596 C 153.823 218.743,158.814 234.364,169.438 231.993 C 172.065 231.407,173.281 230.576,173.124 229.475 C 173.037 228.864,172.758 228.631,172.200 228.702 C 165.908 229.507,164.564 229.236,162.982 226.845 C 160.967 223.800,161.337 219.584,163.853 216.916 C 165.250 215.436,167.202 215.268,171.900 216.226 C 173.083 216.467,173.200 216.403,173.200 215.519 C 173.200 213.117,166.860 211.852,163.560 213.596 M184.247 213.252 C 183.769 213.535,182.577 213.606,180.992 213.443 C 177.824 213.119,178.000 212.579,178.000 222.604 C 178.000 231.475,178.202 232.342,180.111 231.638 C 180.961 231.325,181.009 231.052,181.208 225.355 C 181.331 221.833,181.613 219.050,181.899 218.543 C 182.702 217.118,184.794 215.600,185.954 215.600 C 186.555 215.600,187.396 215.341,187.824 215.023 C 189.583 213.717,186.245 212.064,184.247 213.252 M195.000 213.534 C 185.852 219.365,190.761 234.524,200.937 231.867 C 202.502 231.458,203.641 231.387,204.691 231.631 C 207.970 232.392,208.000 232.310,208.000 222.616 C 208.000 213.173,207.707 212.161,205.267 213.172 C 204.493 213.493,203.443 213.586,202.509 213.417 C 198.628 212.715,196.225 212.753,195.000 213.534 M219.735 213.524 C 218.292 214.068,217.850 214.079,216.419 213.606 C 213.678 212.702,213.722 212.473,213.915 226.728 L 214.085 239.256 215.031 239.687 C 216.604 240.404,217.098 239.587,217.261 235.997 C 217.455 231.714,217.900 231.254,221.195 231.935 C 227.606 233.259,231.875 228.987,231.538 221.585 C 231.231 214.819,225.921 211.193,219.735 213.524 M202.796 217.102 C 205.966 220.272,205.325 226.473,201.593 228.748 C 195.485 232.471,190.449 221.999,195.799 216.700 C 197.607 214.909,200.786 215.092,202.796 217.102 M226.356 216.879 C 230.118 220.728,228.510 228.357,223.720 229.381 C 218.111 230.580,214.843 221.496,219.247 216.951 C 221.146 214.992,224.478 214.958,226.356 216.879 " stroke="none" fill="#2a5e71" fill-rule="evenodd"></path><path id="path2" d="M193.637 132.106 C 193.078 132.393,192.449 133.271,192.136 134.200 C 191.075 137.349,188.668 138.340,185.397 136.973 C 183.270 136.084,182.354 136.581,178.072 140.947 C 173.968 145.133,173.449 146.258,174.786 148.067 C 176.415 150.271,175.242 152.980,171.980 154.547 C 169.525 155.726,169.209 156.582,169.228 162.000 C 169.248 167.459,169.722 169.184,171.400 169.909 C 174.202 171.120,174.614 171.466,175.176 173.079 C 175.701 174.585,175.685 174.882,174.994 176.412 C 173.835 178.983,174.043 179.429,178.474 183.874 C 182.842 188.257,183.982 188.806,185.824 187.413 C 187.847 185.882,191.165 187.289,192.086 190.067 C 192.807 192.240,194.483 192.933,198.499 192.718 C 201.814 192.541,202.370 192.055,202.678 189.066 C 202.974 186.202,203.399 185.860,206.399 186.077 C 208.330 186.217,209.024 186.465,209.938 187.341 C 213.767 191.009,220.000 188.251,220.000 182.888 C 220.000 180.801,220.291 180.648,222.338 181.661 C 224.711 182.835,226.483 182.422,228.735 180.170 C 232.994 175.911,228.486 168.658,222.830 170.667 L 220.894 171.354 217.547 169.788 L 214.200 168.221 205.000 168.008 C 197.799 167.840,195.600 167.664,194.877 167.197 C 191.993 165.331,191.533 160.745,193.977 158.224 C 195.825 156.317,197.612 156.000,206.500 156.000 L 214.246 156.000 217.599 154.647 C 220.893 153.318,220.981 153.306,222.642 153.921 C 224.964 154.782,227.014 154.145,229.001 151.947 C 232.914 147.614,228.011 140.365,222.743 142.695 C 220.426 143.720,220.000 143.510,220.000 141.339 C 220.000 139.441,218.304 136.356,216.981 135.848 C 215.106 135.129,211.635 135.594,210.314 136.741 C 206.332 140.200,203.139 139.611,202.612 135.320 C 202.198 131.957,201.738 131.599,197.838 131.606 C 196.057 131.609,194.167 131.834,193.637 132.106 M201.239 133.600 C 201.416 133.930,201.673 135.235,201.810 136.500 C 202.153 139.685,202.691 140.119,206.061 139.929 C 208.448 139.794,208.942 139.623,210.091 138.535 C 214.138 134.704,219.608 136.966,218.650 142.075 C 217.851 146.334,214.107 147.047,209.641 143.791 C 207.269 142.062,203.241 142.326,201.967 144.295 C 201.120 145.603,200.741 145.826,198.919 146.088 C 179.550 148.876,179.303 176.119,198.628 178.188 C 200.963 178.438,201.298 178.585,201.702 179.534 C 202.591 181.627,203.177 182.000,205.562 181.994 C 207.931 181.988,208.470 181.769,211.203 179.700 C 213.633 177.860,215.221 177.927,217.247 179.953 C 221.599 184.305,215.341 190.857,210.838 186.664 C 209.193 185.133,208.230 184.800,205.440 184.800 C 202.479 184.800,202.195 185.052,201.788 188.050 C 201.259 191.937,201.604 191.645,197.693 191.515 L 194.210 191.400 193.333 189.551 C 191.832 186.386,188.873 184.900,186.224 185.982 C 183.432 187.121,183.421 187.117,179.603 183.381 C 175.479 179.346,175.281 178.950,176.193 176.562 C 177.384 173.445,175.854 170.232,172.697 169.219 C 170.595 168.544,170.400 167.935,170.400 162.049 C 170.400 156.520,170.747 155.600,172.831 155.600 C 174.976 155.600,177.314 150.513,176.197 148.275 C 175.074 146.023,175.369 145.333,179.072 141.548 C 182.844 137.695,183.532 137.408,186.093 138.629 C 188.175 139.622,191.689 138.187,192.855 135.868 C 194.346 132.900,194.594 132.755,197.934 132.885 C 200.085 132.968,201.006 133.167,201.239 133.600 M227.832 144.830 C 231.902 148.654,227.566 154.280,222.035 152.352 C 220.898 151.956,220.420 152.058,217.875 153.239 L 215.000 154.574 206.200 154.827 C 194.580 155.160,192.102 156.182,191.389 160.932 C 190.441 167.258,193.312 169.199,203.626 169.202 C 211.929 169.205,214.297 169.540,217.734 171.198 C 220.268 172.420,220.376 172.436,222.753 171.945 C 229.386 170.575,232.227 178.048,226.071 180.669 C 223.714 181.673,221.238 180.213,219.807 176.977 C 218.968 175.081,218.581 174.696,216.332 173.522 L 213.800 172.200 203.964 172.000 L 194.129 171.800 192.496 170.668 C 186.475 166.491,186.961 157.436,193.411 153.609 L 195.781 152.203 204.991 151.995 L 214.200 151.787 216.645 150.516 C 218.855 149.366,219.174 149.035,219.977 147.056 C 221.387 143.583,225.318 142.468,227.832 144.830 M209.852 145.300 C 211.410 146.669,214.815 147.099,217.700 146.292 C 219.098 145.901,219.186 146.723,217.900 148.163 C 216.048 150.237,213.481 150.800,205.885 150.800 C 197.790 150.800,194.485 151.353,191.886 153.141 C 186.175 157.070,185.493 165.986,190.557 170.511 C 193.255 172.922,193.428 172.958,203.800 173.212 C 214.471 173.473,216.184 173.850,217.946 176.324 C 219.121 177.974,219.163 179.653,218.004 178.604 C 216.220 176.989,212.010 177.313,209.824 179.233 C 208.764 180.164,207.917 180.508,206.267 180.678 C 203.978 180.914,203.813 180.828,202.075 178.475 C 201.597 177.828,200.852 177.487,199.596 177.342 C 196.718 177.009,191.919 174.938,190.235 173.303 C 188.425 171.545,186.400 168.680,186.400 167.877 C 186.400 167.558,186.109 166.601,185.753 165.750 C 182.603 158.210,191.051 147.200,199.987 147.200 C 200.846 147.200,201.450 146.799,202.400 145.600 C 204.170 143.365,207.497 143.231,209.852 145.300 M223.000 156.565 C 222.340 156.859,221.100 157.662,220.245 158.349 L 218.690 159.600 208.127 159.600 L 197.564 159.600 196.582 160.582 C 195.400 161.763,195.355 162.408,196.364 163.656 L 197.128 164.600 208.043 164.724 L 218.957 164.849 220.500 166.243 C 223.604 169.047,225.692 169.048,228.615 166.248 C 231.731 163.262,230.923 159.089,226.828 157.014 C 224.530 155.850,224.592 155.857,223.000 156.565 M227.124 158.410 C 229.926 160.119,230.145 163.585,227.581 165.661 C 225.539 167.313,224.099 167.475,222.400 166.242 C 221.630 165.684,220.558 164.906,220.019 164.513 C 219.155 163.885,217.776 163.776,208.462 163.600 C 199.164 163.424,197.835 163.319,197.466 162.734 C 196.364 160.984,197.395 160.800,208.349 160.798 C 217.435 160.796,218.718 160.716,219.637 160.098 C 222.863 157.927,223.507 157.603,224.600 157.603 C 225.260 157.603,226.396 157.966,227.124 158.410 M141.200 203.466 C 139.304 203.857,134.719 207.909,133.983 209.844 C 131.858 215.433,136.641 220.713,145.377 222.422 C 150.994 223.520,150.662 227.588,144.955 227.598 C 142.809 227.602,139.487 226.821,138.729 226.136 C 135.617 223.319,132.038 228.076,135.098 230.963 C 140.287 235.859,148.949 235.370,154.421 229.871 L 156.946 227.334 158.805 229.567 C 162.622 234.152,167.350 235.398,172.100 233.069 C 173.365 232.449,174.400 231.794,174.400 231.613 C 174.400 230.640,175.706 231.029,177.132 232.427 C 180.800 236.022,182.527 234.110,182.813 226.136 C 183.048 219.596,183.297 218.825,185.511 217.774 C 188.200 216.498,188.619 216.934,188.461 220.840 C 188.101 229.714,194.290 236.099,201.030 233.808 C 202.837 233.193,203.415 233.159,205.043 233.569 C 209.381 234.661,210.479 232.292,210.312 222.200 C 210.146 212.147,209.467 210.819,204.807 211.437 C 203.761 211.576,201.989 211.492,200.868 211.252 C 198.072 210.652,195.161 211.244,193.279 212.795 C 191.519 214.246,190.569 214.326,190.248 213.051 C 190.004 212.076,188.355 211.139,186.970 211.188 C 185.705 211.233,178.637 211.539,178.142 211.571 C 177.890 211.587,177.260 212.047,176.742 212.593 C 175.742 213.647,174.627 213.891,174.172 213.155 C 173.150 211.501,167.254 210.592,163.762 211.549 C 161.798 212.087,157.775 216.068,157.396 217.849 C 157.261 218.482,156.929 219.515,156.658 220.145 L 156.166 221.290 153.704 219.315 C 151.718 217.721,150.522 217.129,147.521 216.253 C 142.094 214.670,141.026 214.071,140.876 212.525 C 140.571 209.369,146.417 208.678,151.241 211.298 C 153.094 212.305,153.957 212.113,155.082 210.444 L 155.992 209.094 155.156 207.608 C 153.286 204.280,146.713 202.330,141.200 203.466 M245.762 204.441 C 244.780 205.525,244.373 230.194,245.306 232.000 C 246.512 234.333,249.323 234.468,250.959 232.272 C 251.715 231.257,251.820 230.450,252.000 224.272 C 252.189 217.777,252.244 217.394,253.000 217.298 C 254.775 217.071,254.983 217.660,255.212 223.565 C 255.425 229.058,255.452 229.190,256.646 230.681 C 259.590 234.357,263.725 235.235,266.103 232.690 C 267.835 230.836,266.889 227.600,264.614 227.600 C 262.761 227.600,262.219 226.692,262.071 223.336 C 261.891 219.227,262.299 218.254,264.684 217.115 C 268.087 215.489,267.947 212.338,264.426 211.321 C 262.500 210.764,262.016 210.281,262.006 208.906 C 261.977 204.616,256.404 205.129,255.218 209.531 C 254.534 212.075,252.009 212.330,251.990 209.857 C 251.949 204.578,248.419 201.508,245.762 204.441 M151.114 205.349 C 156.403 208.049,155.484 212.030,150.100 209.744 C 144.241 207.256,138.304 209.507,139.990 213.576 C 140.580 214.999,141.209 215.316,146.800 217.005 C 156.104 219.816,158.381 224.893,152.747 230.266 C 148.877 233.955,140.237 234.104,136.018 230.554 C 133.283 228.253,135.536 225.306,138.588 227.193 C 141.442 228.957,149.011 228.648,150.040 226.726 C 151.386 224.211,149.972 222.656,145.173 221.372 C 137.821 219.404,134.400 216.618,134.400 212.597 C 134.400 210.162,138.643 205.110,141.148 204.561 C 141.727 204.434,142.380 204.259,142.600 204.173 C 143.981 203.629,149.143 204.342,151.114 205.349 M249.779 205.177 C 251.477 207.053,251.368 230.650,249.656 232.036 C 248.470 232.995,247.930 232.995,246.744 232.036 L 245.800 231.272 245.676 220.136 C 245.543 208.278,245.692 205.965,246.652 205.005 C 247.489 204.168,248.939 204.248,249.779 205.177 M260.069 207.462 C 260.471 207.826,260.800 208.448,260.800 208.843 C 260.800 210.211,261.728 211.617,262.769 211.827 C 266.680 212.615,267.192 215.433,263.600 216.400 C 259.780 217.429,259.600 227.076,263.378 228.314 C 266.969 229.490,266.936 232.313,263.322 233.036 C 258.859 233.928,256.290 230.303,255.951 222.630 C 255.814 219.534,255.679 216.975,255.651 216.944 C 255.623 216.913,254.783 216.504,253.784 216.034 C 251.258 214.847,251.310 212.400,253.861 212.400 C 254.732 212.400,256.000 210.880,256.000 209.836 C 256.000 207.902,258.769 206.286,260.069 207.462 M221.200 211.276 C 220.210 211.478,218.302 211.567,216.960 211.473 C 211.638 211.100,211.589 211.205,211.640 222.933 C 211.702 237.226,211.946 239.851,213.322 241.035 C 216.205 243.514,218.800 241.437,218.800 236.650 C 218.800 233.615,219.065 233.346,221.408 234.002 C 231.289 236.769,237.731 221.643,229.939 213.971 C 227.596 211.664,227.444 211.592,223.800 211.031 C 223.360 210.963,222.190 211.073,221.200 211.276 M171.391 212.623 C 173.436 213.593,174.544 214.972,174.243 216.172 C 173.913 217.488,172.459 217.858,170.863 217.033 C 165.539 214.280,160.376 220.064,163.205 225.610 C 164.454 228.058,165.516 228.562,168.712 228.222 C 173.275 227.736,173.673 227.757,174.151 228.503 C 175.219 230.175,172.350 232.548,168.647 233.056 C 159.819 234.266,154.029 222.530,160.005 215.538 C 162.840 212.222,167.845 210.940,171.391 212.623 M188.725 212.816 C 190.455 214.427,189.696 215.783,186.805 216.246 C 185.645 216.431,184.568 216.968,183.625 217.831 L 182.200 219.137 182.000 225.402 C 181.789 232.025,181.536 232.800,179.593 232.800 C 177.563 232.800,177.266 231.557,177.155 222.600 C 177.026 212.126,176.996 212.212,180.740 212.532 C 182.203 212.656,183.760 212.601,184.200 212.407 C 185.668 211.763,187.801 211.955,188.725 212.816 M203.200 212.505 C 203.970 212.537,205.086 212.419,205.680 212.243 C 206.555 211.984,206.953 212.117,207.780 212.944 L 208.800 213.964 208.800 222.512 L 208.800 231.061 207.819 231.982 C 206.906 232.840,206.706 232.871,204.973 232.435 C 203.416 232.043,202.782 232.075,201.114 232.629 C 191.891 235.692,185.015 221.412,192.462 214.661 C 195.254 212.130,195.686 211.969,199.000 212.228 C 200.540 212.348,202.430 212.473,203.200 212.505 M227.694 213.213 C 236.660 219.151,231.729 235.540,221.777 232.878 C 218.212 231.925,218.000 232.124,218.000 236.433 C 218.000 239.499,217.244 240.800,215.462 240.800 C 213.091 240.800,213.006 240.318,212.933 226.470 C 212.854 211.488,212.658 212.246,216.531 212.600 C 218.205 212.753,219.816 212.693,220.400 212.457 C 222.554 211.582,225.729 211.911,227.694 213.213 M197.400 216.553 C 193.744 218.170,193.333 226.144,196.809 228.005 C 198.456 228.886,201.027 228.480,202.348 227.129 C 206.494 222.888,202.479 214.305,197.400 216.553 M219.604 217.796 C 217.317 220.155,217.331 224.869,219.631 227.169 C 222.818 230.356,227.595 227.669,227.599 222.687 C 227.603 217.059,223.030 214.261,219.604 217.796 M170.365 218.019 C 172.526 218.767,172.855 218.788,174.136 218.252 C 175.936 217.500,176.000 217.656,176.000 222.809 C 176.000 227.048,175.737 227.623,174.180 226.789 C 173.402 226.373,172.826 226.400,170.892 226.942 C 165.476 228.462,162.856 226.383,163.785 221.300 C 164.480 217.495,166.270 216.602,170.365 218.019 M201.593 218.392 C 203.686 220.633,203.541 225.044,201.317 226.794 C 197.590 229.726,193.742 224.650,195.971 219.741 C 197.261 216.899,199.660 216.323,201.593 218.392 M224.705 217.819 C 226.009 218.732,226.992 222.407,226.407 224.179 C 224.466 230.061,218.284 227.949,218.931 221.626 C 219.298 218.038,222.244 216.095,224.705 217.819 M115.857 246.109 C 114.597 247.030,115.077 252.562,116.431 252.720 C 118.198 252.925,119.512 251.531,118.802 250.203 C 118.254 249.179,118.282 249.076,119.311 248.327 C 119.910 247.890,120.400 247.285,120.400 246.981 C 120.400 245.731,117.211 245.119,115.857 246.109 M125.100 246.032 C 123.676 246.861,125.994 249.600,128.120 249.600 C 129.057 249.600,131.600 247.676,131.600 246.967 C 131.600 245.724,126.811 245.035,125.100 246.032 M162.100 246.046 C 161.483 246.681,161.416 252.908,162.014 254.026 C 162.587 255.097,163.392 254.993,164.312 253.731 L 165.090 252.663 165.834 253.531 C 167.439 255.406,168.000 254.496,168.000 250.016 C 168.000 247.679,167.844 246.768,167.376 246.380 C 166.485 245.641,162.725 245.403,162.100 246.046 M173.291 246.092 C 170.140 247.611,172.139 255.600,175.670 255.600 C 177.614 255.600,177.771 254.571,175.900 254.086 C 175.185 253.901,174.600 253.491,174.600 253.175 C 174.600 252.859,175.185 252.343,175.900 252.028 C 177.523 251.314,177.559 250.603,176.000 250.060 C 174.457 249.522,174.477 249.008,176.058 248.555 C 176.750 248.356,177.515 247.870,177.758 247.474 C 178.668 245.990,175.522 245.017,173.291 246.092 M191.600 245.878 C 189.382 246.670,189.394 254.020,191.616 255.208 C 194.601 256.806,198.000 254.549,198.000 250.969 C 198.000 246.684,195.317 244.549,191.600 245.878 M202.400 246.400 C 200.750 248.050,201.498 254.997,203.369 255.397 C 206.736 256.118,208.839 255.050,206.000 254.060 C 204.480 253.530,204.479 252.945,205.997 252.081 C 207.459 251.250,207.517 250.673,206.200 250.073 C 204.874 249.469,204.938 248.970,206.405 248.458 C 207.068 248.227,207.727 247.733,207.870 247.361 C 208.523 245.661,203.944 244.856,202.400 246.400 M224.289 246.169 C 223.753 246.704,223.689 248.049,223.940 253.491 C 224.017 255.157,225.360 256.108,227.135 255.753 C 228.536 255.473,228.824 254.588,227.637 254.212 C 226.521 253.858,226.343 252.975,227.227 252.176 C 228.180 251.313,228.195 250.879,227.305 249.895 C 226.640 249.161,226.657 249.094,227.705 248.331 C 228.307 247.892,228.800 247.285,228.800 246.981 C 228.800 245.704,225.371 245.086,224.289 246.169 M255.648 246.352 C 254.207 247.793,254.599 253.641,256.178 254.247 C 256.857 254.507,262.000 249.534,262.000 248.617 C 262.000 246.362,257.310 244.690,255.648 246.352 M266.080 246.080 C 264.209 247.951,266.079 256.030,268.062 254.642 C 268.664 254.220,269.170 254.160,269.875 254.428 C 271.350 254.989,271.522 254.916,272.310 253.379 C 273.038 251.960,273.039 251.959,273.781 252.779 C 275.329 254.490,275.985 253.527,275.995 249.529 C 276.001 247.035,275.372 246.000,273.851 246.000 C 272.716 246.000,272.000 246.715,272.000 247.847 C 272.000 250.400,270.827 250.677,269.787 248.371 C 268.721 246.008,267.133 245.027,266.080 246.080 M280.289 246.169 C 279.753 246.704,279.689 248.049,279.940 253.491 C 280.017 255.157,281.360 256.108,283.135 255.753 C 284.536 255.473,284.824 254.588,283.637 254.212 C 282.435 253.830,282.341 252.904,283.418 252.057 C 284.615 251.116,284.620 251.020,283.540 249.940 L 282.679 249.079 284.140 248.330 C 284.943 247.918,285.600 247.311,285.600 246.981 C 285.600 245.722,281.380 245.077,280.289 246.169 M290.080 246.080 C 289.783 246.377,289.600 247.837,289.600 249.906 C 289.600 254.708,290.449 255.909,292.283 253.700 L 293.196 252.600 294.032 253.700 C 295.974 256.259,298.000 254.553,298.000 250.360 C 298.000 246.588,296.623 245.654,295.848 248.900 C 295.486 250.412,294.662 250.279,294.059 248.612 C 293.247 246.368,291.136 245.024,290.080 246.080 M301.900 246.023 C 300.885 246.627,301.037 247.329,302.400 248.337 C 303.417 249.089,303.600 249.492,303.600 250.986 C 303.600 253.191,304.191 254.800,305.000 254.800 C 305.790 254.800,306.400 253.204,306.400 251.136 C 306.400 250.124,306.722 249.071,307.265 248.309 C 308.537 246.522,307.920 245.825,304.958 245.703 C 303.661 245.649,302.285 245.793,301.900 246.023 M92.629 246.629 C 91.817 247.440,91.821 249.539,92.636 250.440 C 93.076 250.926,93.175 251.429,92.958 252.071 C 91.950 255.048,95.625 257.020,97.571 254.546 C 99.060 252.653,98.478 250.344,96.269 249.383 C 95.038 248.848,95.031 248.831,96.032 248.816 C 97.354 248.796,98.515 246.970,97.582 246.380 C 96.613 245.767,93.325 245.932,92.629 246.629 M104.600 246.306 C 100.075 249.631,103.954 257.698,108.689 254.811 C 110.477 253.721,111.090 248.395,109.630 246.636 C 109.078 245.971,105.386 245.728,104.600 246.306 M139.000 246.800 C 137.564 247.751,136.673 247.810,136.000 247.000 C 134.760 245.506,133.947 247.098,135.162 248.642 C 135.711 249.341,136.000 250.288,136.000 251.392 C 136.000 254.407,137.363 254.969,140.151 253.103 C 140.746 252.705,140.940 252.703,141.083 253.095 C 141.494 254.224,142.705 255.322,143.291 255.097 C 144.157 254.765,146.081 249.527,145.927 247.921 C 145.738 245.950,144.331 246.070,143.829 248.100 C 143.386 249.897,142.400 250.123,142.400 248.429 C 142.400 246.189,140.963 245.500,139.000 246.800 M152.731 246.418 C 152.363 246.631,151.938 247.374,151.785 248.069 C 151.632 248.764,151.169 249.888,150.755 250.567 C 149.108 253.269,150.135 255.113,152.490 253.682 C 153.811 252.879,155.182 253.000,155.783 253.972 C 156.188 254.627,157.129 254.481,157.539 253.700 C 157.874 253.061,156.063 247.534,155.260 246.745 C 154.724 246.219,153.377 246.044,152.731 246.418 M212.449 246.511 C 211.806 247.154,211.892 247.923,212.742 249.138 C 213.151 249.722,213.608 251.001,213.760 251.980 C 214.360 255.860,217.393 255.874,218.204 252.000 C 218.366 251.230,218.834 249.935,219.245 249.123 C 220.531 246.582,219.295 245.392,217.663 247.600 C 216.460 249.227,214.913 249.242,214.351 247.632 C 213.890 246.308,213.111 245.849,212.449 246.511 M234.014 246.774 C 232.946 248.769,233.718 255.253,235.086 255.778 C 236.860 256.458,238.053 255.232,236.987 253.824 C 236.603 253.316,236.400 252.096,236.400 250.297 C 236.400 247.394,235.946 246.000,235.000 246.000 C 234.685 246.000,234.242 246.348,234.014 246.774 M244.542 246.493 C 244.374 246.765,243.810 247.790,243.289 248.771 L 242.340 250.555 243.217 252.178 C 245.339 256.106,247.507 256.578,249.963 253.644 C 252.168 251.011,251.951 248.180,249.400 246.306 C 248.725 245.810,244.873 245.959,244.542 246.493 M305.950 246.939 C 306.757 247.912,305.123 249.020,304.270 248.078 C 303.762 247.516,303.719 247.241,304.085 246.875 C 304.710 246.250,305.397 246.274,305.950 246.939 M164.141 247.104 C 164.244 247.272,164.092 247.733,163.803 248.128 C 163.215 248.933,162.573 248.369,162.952 247.381 C 163.191 246.757,163.834 246.608,164.141 247.104 M267.986 247.974 C 268.561 249.048,268.503 250.506,267.850 251.400 C 267.340 252.096,266.400 249.618,266.400 247.580 C 266.400 246.894,267.563 247.183,267.986 247.974 M292.282 248.100 C 292.704 249.027,292.375 250.521,291.650 250.969 C 291.279 251.198,290.408 248.915,290.402 247.700 C 290.398 246.844,291.850 247.153,292.282 248.100 M108.096 248.900 C 109.368 249.880,108.329 253.600,106.784 253.600 C 105.017 253.600,103.293 250.067,104.480 248.880 C 105.108 248.252,107.271 248.264,108.096 248.900 M248.974 248.931 C 250.490 250.040,249.090 253.600,247.138 253.600 C 246.308 253.600,244.802 250.929,245.109 250.000 C 245.651 248.360,247.495 247.850,248.974 248.931 M195.600 250.320 C 195.600 252.687,194.001 253.718,193.168 251.889 C 192.533 250.495,193.313 248.800,194.590 248.800 C 195.493 248.800,195.600 248.961,195.600 250.320 M163.656 251.487 C 163.145 252.400,162.720 251.456,163.050 250.141 C 163.323 249.055,163.328 249.054,163.663 249.958 C 163.848 250.460,163.845 251.148,163.656 251.487 " stroke="none" fill="#83a7b4" fill-rule="evenodd"></path><path id="path3" d="M194.910 134.100 C 194.696 134.375,194.108 135.353,193.602 136.273 C 192.171 138.877,187.580 140.715,185.824 139.387 C 184.179 138.144,183.116 138.621,179.671 142.151 C 176.179 145.729,176.046 146.031,177.050 148.135 C 178.382 150.929,175.525 156.392,172.729 156.399 C 171.160 156.402,170.800 157.457,170.800 162.055 C 170.800 167.143,171.047 167.802,173.192 168.445 C 176.350 169.391,178.207 173.384,176.981 176.593 C 176.137 178.805,176.339 179.185,180.518 183.233 C 183.604 186.223,183.829 186.316,185.656 185.371 C 188.435 183.934,193.292 186.110,194.203 189.200 C 194.717 190.941,195.178 191.200,197.769 191.200 C 200.787 191.200,201.218 190.818,201.136 188.220 C 201.088 186.699,201.036 186.546,200.928 187.600 C 200.594 190.847,200.639 190.800,197.823 190.800 L 195.262 190.800 194.783 189.300 C 194.110 187.194,192.597 185.730,190.310 184.970 C 188.460 184.356,187.762 184.362,184.507 185.025 C 183.317 185.268,182.996 185.078,180.474 182.644 C 176.770 179.068,176.560 178.623,177.541 176.432 C 178.312 174.711,178.312 174.661,177.561 172.910 C 177.143 171.933,176.800 170.910,176.800 170.637 C 176.800 169.916,175.219 168.613,173.600 167.998 C 171.209 167.089,171.200 167.068,171.200 162.200 C 171.200 157.284,171.284 157.087,173.574 156.652 C 176.264 156.140,178.750 151.028,177.645 148.279 C 177.363 147.576,177.042 146.708,176.932 146.350 C 176.331 144.389,184.368 138.316,185.600 139.800 C 186.974 141.455,194.400 138.354,194.400 136.125 C 194.400 135.005,195.966 134.000,197.700 134.006 C 200.024 134.014,200.514 134.432,200.825 136.672 L 201.093 138.600 201.147 136.874 C 201.234 134.048,200.780 133.600,197.835 133.600 C 196.279 133.600,195.148 133.793,194.910 134.100 M213.259 137.249 C 212.741 137.445,211.501 138.324,210.502 139.202 C 208.097 141.320,203.499 141.615,202.029 139.746 C 201.487 139.057,201.200 138.902,201.200 139.297 C 201.200 139.630,201.456 140.115,201.770 140.375 C 202.447 140.937,201.374 143.791,200.149 144.687 C 199.511 145.153,199.508 145.200,200.115 145.200 C 200.492 145.200,201.139 144.504,201.597 143.606 C 202.090 142.640,202.762 141.941,203.305 141.831 C 206.912 141.097,208.037 141.366,210.952 143.662 C 214.170 146.197,217.149 145.412,217.816 141.855 C 218.327 139.130,215.594 136.368,213.259 137.249 M216.156 138.500 C 218.463 140.576,217.025 144.800,214.012 144.800 C 213.103 144.800,212.314 144.339,210.947 143.010 L 209.105 141.221 210.968 139.410 C 213.115 137.324,214.565 137.069,216.156 138.500 M222.400 144.980 C 221.778 145.322,221.093 146.337,220.587 147.665 C 219.846 149.611,219.546 149.924,217.187 151.200 L 214.600 152.600 205.600 152.800 C 196.657 152.999,196.586 153.007,194.432 154.139 C 187.909 157.568,187.093 165.067,192.728 169.802 L 194.056 170.918 203.828 170.836 C 210.485 170.780,213.600 170.888,213.600 171.177 C 213.600 171.410,213.915 171.604,214.300 171.609 C 214.685 171.614,215.450 171.970,216.000 172.400 C 216.550 172.830,217.299 173.186,217.664 173.191 C 218.354 173.200,220.400 175.353,220.400 176.070 C 220.400 180.471,227.494 181.266,228.568 176.986 C 229.342 173.900,226.967 172.312,222.092 172.656 C 218.997 172.875,218.428 172.806,217.088 172.051 C 216.256 171.583,215.232 171.200,214.811 171.200 C 214.391 171.200,213.936 171.020,213.800 170.800 C 213.648 170.554,210.336 170.400,205.198 170.400 L 196.843 170.400 194.380 168.956 C 189.806 166.276,188.855 160.500,192.389 156.860 C 194.995 154.174,197.455 153.622,207.410 153.494 C 215.250 153.393,215.921 153.326,217.312 152.505 C 218.973 151.525,220.346 151.371,223.616 151.800 C 225.639 152.065,225.939 152.000,227.072 151.046 C 230.862 147.857,226.785 142.563,222.400 144.980 M226.695 145.411 C 228.606 146.750,228.312 150.073,226.194 151.083 C 223.945 152.156,218.452 150.604,220.348 149.432 C 220.540 149.314,220.807 148.667,220.941 147.996 C 221.467 145.366,224.613 143.953,226.695 145.411 M192.941 146.589 C 177.469 153.874,181.009 177.906,197.731 179.115 C 200.234 179.295,200.493 179.399,200.834 180.356 C 201.038 180.930,201.459 181.851,201.768 182.403 C 202.252 183.266,202.252 183.515,201.765 184.180 C 201.454 184.605,201.211 185.234,201.225 185.576 C 201.243 186.007,201.353 185.948,201.581 185.386 C 202.635 182.785,207.375 182.849,210.736 185.509 C 213.824 187.954,216.272 187.761,217.434 184.981 C 219.321 180.464,214.752 177.408,211.091 180.738 C 207.287 184.199,202.966 184.027,201.229 180.347 C 200.626 179.070,200.453 178.985,197.888 178.701 C 179.315 176.647,178.714 148.730,197.176 145.603 L 199.000 145.294 197.400 145.268 C 196.374 145.252,194.775 145.725,192.941 146.589 M221.200 160.000 L 219.056 161.600 208.971 161.600 C 200.375 161.600,198.852 161.689,198.655 162.200 C 198.455 162.723,199.678 162.800,208.225 162.800 C 218.728 162.800,219.019 162.847,221.959 165.003 C 225.438 167.554,229.893 164.554,228.200 160.801 C 226.909 157.938,224.356 157.646,221.200 160.000 M226.781 159.504 C 229.082 161.368,227.969 165.078,224.996 165.451 C 223.528 165.635,219.319 163.387,219.222 162.367 C 219.058 160.637,225.273 158.283,226.781 159.504 M226.781 173.504 C 228.992 175.294,227.706 179.600,224.960 179.600 C 221.390 179.600,218.732 174.205,221.870 173.328 C 224.218 172.673,225.825 172.730,226.781 173.504 M216.142 180.581 C 218.431 182.702,217.131 186.800,214.169 186.800 C 213.210 186.800,212.392 186.361,210.992 185.093 L 209.106 183.385 210.253 182.174 C 212.881 179.398,214.417 178.983,216.142 180.581 M140.510 204.992 C 137.589 206.262,134.804 210.048,134.801 212.753 C 134.798 217.074,138.956 220.036,147.495 221.795 C 150.043 222.319,151.362 225.806,149.611 227.390 C 147.879 228.958,140.949 228.875,138.254 227.254 C 135.483 225.588,133.681 228.113,136.056 230.333 C 139.967 233.988,149.519 233.800,152.952 230.000 C 158.067 224.339,155.815 220.016,146.200 217.042 C 141.085 215.459,139.600 214.449,139.600 212.551 C 139.600 208.736,144.764 207.297,150.175 209.605 C 152.762 210.709,152.999 210.744,153.675 210.132 C 157.273 206.876,146.159 202.536,140.510 204.992 M246.800 205.200 C 245.698 206.302,245.541 230.684,246.629 231.771 C 247.416 232.559,248.960 232.583,249.723 231.820 C 250.386 231.157,250.832 216.028,250.388 209.247 C 250.082 204.568,248.837 203.163,246.800 205.200 M150.569 206.044 C 153.161 207.282,153.847 208.091,153.366 209.344 C 153.031 210.216,152.727 210.179,150.356 208.977 C 145.486 206.510,139.698 207.937,138.977 211.782 C 138.474 214.465,139.681 215.571,144.883 217.193 C 154.189 220.096,156.713 223.226,153.648 228.061 C 150.616 232.842,140.798 233.944,136.576 229.977 C 134.602 228.123,135.856 226.702,138.345 227.972 C 144.876 231.304,153.139 228.109,150.615 223.229 C 149.930 221.905,149.944 221.911,144.105 220.211 C 135.666 217.754,133.103 213.470,137.150 208.589 C 140.439 204.623,145.561 203.652,150.569 206.044 M249.397 206.139 C 250.474 207.782,250.097 230.705,248.981 231.446 C 248.283 231.909,248.033 231.898,247.281 231.372 C 246.112 230.553,245.878 207.723,247.023 206.089 C 247.825 204.944,248.625 204.961,249.397 206.139 M257.497 207.667 C 256.926 208.084,256.335 209.004,256.185 209.712 C 255.884 211.126,254.944 212.400,254.200 212.400 C 252.306 212.400,251.970 215.010,253.768 215.761 C 255.689 216.563,255.999 217.408,256.010 221.874 C 256.024 227.985,256.726 229.947,259.596 231.900 C 260.908 232.793,263.736 233.128,264.600 232.494 C 266.465 231.123,266.019 229.043,263.769 228.621 C 261.275 228.153,260.715 226.850,260.867 221.871 C 261.015 217.044,261.168 216.763,264.064 215.983 C 266.716 215.269,266.479 212.726,263.711 212.213 C 261.963 211.888,260.800 210.987,260.800 209.957 C 260.800 207.596,259.158 206.458,257.497 207.667 M260.057 209.861 C 260.517 211.686,261.834 212.800,263.531 212.800 C 265.999 212.800,265.446 215.207,262.861 215.719 C 260.505 216.184,260.206 216.945,260.203 222.488 C 260.200 227.799,260.435 228.303,263.400 229.327 C 266.667 230.457,264.525 233.031,261.209 231.961 C 257.798 230.860,257.038 229.274,256.771 222.699 L 256.542 217.070 255.071 215.835 C 253.240 214.298,253.243 214.206,255.200 212.400 C 256.277 211.406,256.800 210.583,256.800 209.884 C 256.800 207.245,259.394 207.226,260.057 209.861 M164.898 212.367 C 156.331 214.554,155.188 227.651,163.195 231.885 C 166.584 233.677,172.764 232.725,173.809 230.248 C 174.456 228.716,173.597 227.388,172.216 227.786 C 165.766 229.647,162.400 227.887,162.400 222.652 C 162.400 217.449,165.631 215.116,170.600 216.730 C 173.314 217.611,174.000 217.375,174.000 215.557 C 174.000 213.156,168.861 211.356,164.898 212.367 M184.600 212.439 C 183.940 212.659,182.288 212.736,180.928 212.611 C 177.214 212.269,177.200 212.305,177.200 222.400 C 177.200 231.554,177.403 232.400,179.600 232.400 C 181.660 232.400,182.000 231.342,182.000 224.942 C 182.000 218.364,182.492 217.234,185.729 216.367 C 188.717 215.567,189.200 215.273,189.200 214.258 C 189.200 212.540,186.959 211.654,184.600 212.439 M196.078 212.285 C 195.571 212.382,194.077 213.483,192.758 214.731 C 185.481 221.618,191.653 235.374,200.757 232.557 C 201.990 232.175,203.410 232.069,205.049 232.234 C 208.742 232.608,208.800 232.464,208.800 222.898 C 208.800 212.599,208.173 211.217,204.205 212.767 C 203.757 212.942,202.534 212.844,201.405 212.543 C 199.425 212.016,197.877 211.941,196.078 212.285 M220.400 212.619 C 218.900 213.127,218.248 213.148,216.482 212.746 C 212.943 211.940,213.069 211.430,213.151 226.274 L 213.222 239.000 214.233 239.900 C 216.389 241.819,218.000 240.095,218.000 235.867 C 218.000 232.102,218.360 231.720,221.130 232.542 C 226.182 234.043,231.535 230.128,232.194 224.452 C 233.153 216.189,227.274 210.291,220.400 212.619 M171.646 213.674 C 173.759 214.862,173.937 216.641,171.900 216.226 C 167.202 215.268,165.250 215.436,163.853 216.916 C 161.337 219.584,160.967 223.800,162.982 226.845 C 164.564 229.236,165.908 229.507,172.200 228.702 C 173.403 228.548,173.494 230.189,172.325 230.953 C 166.182 234.960,158.410 230.122,158.402 222.287 C 158.395 215.256,165.843 210.412,171.646 213.674 M188.159 213.723 C 188.715 214.636,187.582 215.600,185.954 215.600 C 184.794 215.600,182.702 217.118,181.899 218.543 C 181.613 219.050,181.331 221.833,181.208 225.355 C 181.009 231.052,180.961 231.325,180.111 231.638 C 178.202 232.342,178.000 231.475,178.000 222.604 C 178.000 212.579,177.824 213.119,180.992 213.443 C 182.577 213.606,183.769 213.535,184.247 213.252 C 185.350 212.596,187.641 212.872,188.159 213.723 M202.509 213.417 C 203.443 213.586,204.493 213.493,205.267 213.172 C 207.707 212.161,208.000 213.173,208.000 222.616 C 208.000 232.310,207.970 232.392,204.691 231.631 C 203.641 231.387,202.502 231.458,200.937 231.867 C 190.761 234.524,185.852 219.365,195.000 213.534 C 196.225 212.753,198.628 212.715,202.509 213.417 M227.532 213.997 C 235.948 220.093,231.046 233.969,221.195 231.935 C 217.900 231.254,217.455 231.714,217.261 235.997 C 217.098 239.587,216.604 240.404,215.031 239.687 L 214.085 239.256 213.915 226.728 C 213.722 212.473,213.678 212.702,216.419 213.606 C 217.850 214.079,218.292 214.068,219.735 213.524 C 222.649 212.426,225.611 212.605,227.532 213.997 M195.799 216.700 C 190.449 221.999,195.485 232.471,201.593 228.748 C 204.178 227.172,205.036 224.959,204.581 221.040 C 204.018 216.188,198.879 213.649,195.799 216.700 M219.247 216.951 C 215.938 220.365,216.751 227.139,220.679 228.876 C 225.647 231.074,229.748 225.867,228.001 219.579 C 226.885 215.563,222.011 214.100,219.247 216.951 M202.546 217.561 C 204.301 219.316,204.618 224.187,203.122 226.394 C 199.340 231.969,192.527 227.121,194.443 220.219 C 195.593 216.078,199.712 214.727,202.546 217.561 M225.078 216.600 C 229.863 219.951,227.873 229.295,222.503 228.690 C 215.856 227.941,216.328 216.165,223.011 216.025 C 223.677 216.011,224.607 216.270,225.078 216.600 " stroke="none" fill="#6c8498" fill-rule="evenodd"></path><path id="path4" d="M194.323 133.485 C 193.976 133.878,193.316 134.951,192.855 135.868 C 191.689 138.187,188.175 139.622,186.093 138.629 C 183.532 137.408,182.844 137.695,179.072 141.548 C 175.369 145.333,175.074 146.023,176.197 148.275 C 177.314 150.513,174.976 155.600,172.831 155.600 C 170.747 155.600,170.400 156.520,170.400 162.049 C 170.400 167.935,170.595 168.544,172.697 169.219 C 175.854 170.232,177.384 173.445,176.193 176.562 C 175.281 178.950,175.479 179.346,179.603 183.381 C 183.421 187.117,183.432 187.121,186.224 185.982 C 188.873 184.900,191.832 186.386,193.333 189.551 L 194.210 191.400 197.693 191.515 C 201.604 191.645,201.259 191.937,201.788 188.050 C 202.195 185.052,202.479 184.800,205.440 184.800 C 208.230 184.800,209.193 185.133,210.838 186.664 C 215.341 190.857,221.599 184.305,217.247 179.953 C 215.221 177.927,213.633 177.860,211.203 179.700 C 208.470 181.769,207.931 181.988,205.562 181.994 C 203.177 182.000,202.591 181.627,201.702 179.534 C 201.298 178.585,200.963 178.438,198.628 178.188 C 179.303 176.119,179.550 148.876,198.919 146.088 C 200.741 145.826,201.120 145.603,201.967 144.295 C 203.241 142.326,207.269 142.062,209.641 143.791 C 214.107 147.047,217.851 146.334,218.650 142.075 C 219.608 136.966,214.138 134.704,210.091 138.535 C 208.942 139.623,208.448 139.794,206.061 139.929 C 202.691 140.119,202.153 139.685,201.810 136.500 C 201.442 133.096,201.358 133.017,197.934 132.885 C 195.476 132.789,194.841 132.895,194.323 133.485 M200.786 134.374 C 201.014 134.799,201.200 135.945,201.200 136.920 C 201.200 141.214,206.683 142.564,210.495 139.208 C 213.630 136.449,215.979 136.452,217.410 139.218 C 219.714 143.675,215.046 146.887,210.952 143.662 C 208.037 141.366,206.912 141.097,203.305 141.831 C 202.764 141.941,202.092 142.636,201.607 143.586 C 200.839 145.092,200.700 145.172,198.377 145.434 C 179.016 147.625,178.591 176.567,197.888 178.701 C 200.453 178.985,200.626 179.070,201.229 180.347 C 202.966 184.027,207.287 184.199,211.091 180.738 C 214.752 177.408,219.321 180.464,217.434 184.981 C 216.272 187.762,213.823 187.954,210.736 185.506 C 206.133 181.856,201.609 182.913,201.277 187.715 C 201.053 190.963,200.816 191.200,197.800 191.200 C 195.176 191.200,194.718 190.945,194.203 189.200 C 193.292 186.110,188.435 183.934,185.656 185.371 C 183.829 186.316,183.604 186.223,180.518 183.233 C 176.339 179.185,176.137 178.805,176.981 176.593 C 178.207 173.384,176.350 169.391,173.192 168.445 C 171.047 167.802,170.800 167.143,170.800 162.055 C 170.800 157.457,171.160 156.402,172.729 156.399 C 175.525 156.392,178.382 150.929,177.050 148.135 C 176.046 146.031,176.179 145.729,179.671 142.151 C 183.116 138.621,184.179 138.144,185.824 139.387 C 187.580 140.715,192.171 138.877,193.602 136.273 C 195.056 133.629,195.101 133.600,197.835 133.600 C 199.934 133.600,200.443 133.734,200.786 134.374 M222.133 144.221 C 221.210 144.692,220.624 145.464,219.977 147.056 C 219.174 149.035,218.855 149.366,216.645 150.516 L 214.200 151.787 204.991 151.995 L 195.781 152.203 193.411 153.609 C 186.961 157.436,186.475 166.491,192.496 170.668 L 194.129 171.800 203.964 172.000 L 213.800 172.200 216.332 173.522 C 218.581 174.696,218.968 175.081,219.807 176.977 C 221.238 180.213,223.714 181.673,226.071 180.669 C 232.227 178.048,229.386 170.575,222.753 171.945 C 220.376 172.436,220.268 172.420,217.734 171.198 C 214.297 169.540,211.929 169.205,203.626 169.202 C 193.312 169.199,190.441 167.258,191.389 160.932 C 192.102 156.182,194.580 155.160,206.200 154.827 L 215.000 154.574 217.875 153.239 C 220.420 152.058,220.898 151.956,222.035 152.352 C 227.566 154.280,231.902 148.654,227.832 144.830 C 226.555 143.630,223.854 143.342,222.133 144.221 M226.513 144.767 C 230.765 146.383,228.282 152.412,223.616 151.800 C 220.346 151.371,218.973 151.525,217.312 152.505 C 215.921 153.326,215.250 153.393,207.410 153.494 C 197.455 153.622,194.995 154.174,192.389 156.860 C 188.855 160.500,189.806 166.276,194.380 168.956 L 196.843 170.400 205.198 170.400 C 210.336 170.400,213.648 170.554,213.800 170.800 C 213.936 171.020,214.391 171.200,214.811 171.200 C 215.232 171.200,216.256 171.583,217.088 172.051 C 218.428 172.806,218.997 172.875,222.092 172.656 C 226.967 172.312,229.342 173.900,228.568 176.986 C 227.494 181.266,220.400 180.471,220.400 176.070 C 220.400 175.353,218.354 173.200,217.664 173.191 C 217.299 173.186,216.550 172.830,216.000 172.400 C 215.450 171.970,214.685 171.614,214.300 171.609 C 213.915 171.604,213.600 171.410,213.600 171.177 C 213.600 170.888,210.485 170.780,203.828 170.836 L 194.056 170.918 192.728 169.802 C 187.093 165.067,187.909 157.568,194.432 154.139 C 196.586 153.007,196.657 152.999,205.600 152.800 L 214.600 152.600 217.187 151.200 C 219.546 149.924,219.846 149.611,220.587 147.665 C 221.700 144.742,223.776 143.726,226.513 144.767 M222.037 158.501 C 221.287 158.996,220.207 159.714,219.637 160.098 C 218.718 160.716,217.435 160.796,208.349 160.798 C 197.395 160.800,196.364 160.984,197.466 162.734 C 197.835 163.319,199.164 163.424,208.462 163.600 C 217.776 163.776,219.155 163.885,220.019 164.513 C 220.558 164.906,221.630 165.684,222.400 166.242 C 224.099 167.475,225.539 167.313,227.581 165.661 C 232.148 161.964,226.955 155.259,222.037 158.501 M226.541 158.846 C 227.080 159.091,227.826 159.971,228.200 160.801 C 229.893 164.554,225.438 167.554,221.959 165.003 C 219.019 162.847,218.728 162.800,208.225 162.800 C 199.678 162.800,198.455 162.723,198.655 162.200 C 198.852 161.689,200.375 161.600,208.971 161.600 L 219.056 161.600 221.200 160.000 C 223.432 158.335,224.780 158.044,226.541 158.846 M143.891 204.289 C 144.601 204.377,145.861 204.379,146.691 204.292 C 147.521 204.205,146.940 204.133,145.400 204.131 C 143.860 204.129,143.181 204.200,143.891 204.289 M245.777 218.800 C 245.777 225.290,245.832 227.945,245.899 224.700 C 245.966 221.455,245.966 216.145,245.899 212.900 C 245.832 209.655,245.777 212.310,245.777 218.800 M250.531 209.800 C 250.533 211.340,250.605 211.921,250.692 211.091 C 250.779 210.261,250.777 209.001,250.689 208.291 C 250.600 207.581,250.529 208.260,250.531 209.800 M134.501 212.600 C 134.505 213.480,134.587 213.793,134.683 213.295 C 134.779 212.798,134.775 212.078,134.675 211.695 C 134.575 211.313,134.496 211.720,134.501 212.600 M252.461 213.147 C 251.455 214.019,251.383 214.522,252.169 215.174 C 252.636 215.562,252.698 215.497,252.518 214.810 C 252.388 214.310,252.586 213.657,253.012 213.187 C 253.914 212.190,253.591 212.167,252.461 213.147 M250.901 214.200 C 250.905 215.080,250.987 215.393,251.083 214.895 C 251.179 214.398,251.175 213.678,251.075 213.295 C 250.975 212.913,250.896 213.320,250.901 214.200 M189.246 214.280 C 189.221 214.764,188.885 215.344,188.500 215.568 C 188.115 215.792,188.003 215.981,188.251 215.988 C 188.963 216.007,189.684 214.909,189.479 214.119 C 189.330 213.543,189.284 213.574,189.246 214.280 M191.578 215.500 L 190.200 217.000 191.700 215.622 C 193.096 214.338,193.384 214.000,193.078 214.000 C 193.012 214.000,192.337 214.675,191.578 215.500 M166.900 216.276 C 167.285 216.376,167.915 216.376,168.300 216.276 C 168.685 216.175,168.370 216.093,167.600 216.093 C 166.830 216.093,166.515 216.175,166.900 216.276 M222.305 216.283 C 222.802 216.379,223.522 216.375,223.905 216.275 C 224.287 216.175,223.880 216.096,223.000 216.101 C 222.120 216.105,221.807 216.187,222.305 216.283 M250.566 223.200 C 250.566 227.270,250.625 228.935,250.698 226.900 C 250.771 224.865,250.771 221.535,250.698 219.500 C 250.625 217.465,250.566 219.130,250.566 223.200 M201.200 216.525 C 201.200 216.594,201.785 217.179,202.500 217.825 L 203.800 219.000 202.625 217.700 C 201.530 216.488,201.200 216.216,201.200 216.525 M219.375 217.700 L 218.200 219.000 219.500 217.825 C 220.215 217.179,220.800 216.594,220.800 216.525 C 220.800 216.216,220.470 216.488,219.375 217.700 M212.970 229.400 C 212.971 234.240,213.029 236.165,213.099 233.678 C 213.169 231.191,213.169 227.231,213.098 224.878 C 213.028 222.525,212.970 224.560,212.970 229.400 M194.109 222.800 C 194.109 223.790,194.187 224.195,194.282 223.700 C 194.378 223.205,194.378 222.395,194.282 221.900 C 194.187 221.405,194.109 221.810,194.109 222.800 M155.568 224.300 C 155.759 225.681,155.787 225.709,155.919 224.651 C 155.998 224.019,155.905 223.345,155.712 223.152 C 155.510 222.950,155.449 223.440,155.568 224.300 M198.305 228.683 C 198.802 228.779,199.522 228.775,199.905 228.675 C 200.287 228.575,199.880 228.496,199.000 228.501 C 198.120 228.505,197.807 228.587,198.305 228.683 M222.305 228.683 C 222.802 228.779,223.522 228.775,223.905 228.675 C 224.287 228.575,223.880 228.496,223.000 228.501 C 222.120 228.505,221.807 228.587,222.305 228.683 M166.700 233.082 C 167.195 233.178,168.005 233.178,168.500 233.082 C 168.995 232.987,168.590 232.909,167.600 232.909 C 166.610 232.909,166.205 232.987,166.700 233.082 M304.085 246.875 C 303.719 247.241,303.762 247.516,304.270 248.078 C 305.123 249.020,306.757 247.912,305.950 246.939 C 305.397 246.274,304.710 246.250,304.085 246.875 M162.952 247.381 C 162.573 248.369,163.215 248.933,163.803 248.128 C 164.092 247.733,164.244 247.272,164.141 247.104 C 163.834 246.608,163.191 246.757,162.952 247.381 M266.400 247.580 C 266.400 249.618,267.340 252.096,267.850 251.400 C 268.503 250.506,268.561 249.048,267.986 247.974 C 267.563 247.183,266.400 246.894,266.400 247.580 M290.402 247.700 C 290.408 248.915,291.279 251.198,291.650 250.969 C 292.375 250.521,292.704 249.027,292.282 248.100 C 291.850 247.153,290.398 246.844,290.402 247.700 M163.050 250.141 C 162.720 251.456,163.145 252.400,163.656 251.487 C 163.845 251.148,163.848 250.460,163.663 249.958 C 163.328 249.054,163.323 249.055,163.050 250.141 " stroke="none" fill="#6494a4" fill-rule="evenodd"></path></g></svg>